<svg width="14" height="19" viewBox="0 0 14 19" fill="none" xmlns="http://www.w3.org/2000/svg">
<path d="M7.04502 1H4.06762C2.35336 1 1 2.28141 1 3.8191C1 5.35678 2.35336 6.63819 3.9774 6.63819H7.04502V1Z" stroke="#15B9ED" stroke-width="1.15056" stroke-miterlimit="10"/>
<path d="M7.04562 6.72363H4.06822C2.44418 6.72363 1.09082 8.00508 1.09082 9.54277C1.09082 11.0805 2.44418 12.3619 4.06822 12.3619H7.04562V6.72363Z" stroke="#15B9ED" stroke-width="1.15056" stroke-miterlimit="10"/>
<path d="M7.04562 12.3618H4.06822C2.44418 12.3618 1.09082 13.6432 1.09082 15.1809C1.09082 16.7186 2.44418 18 4.06822 18C5.69225 18 7.04562 16.7186 7.04562 15.1809V12.3618Z" stroke="#15B9ED" stroke-width="1.15056" stroke-miterlimit="10"/>
<path d="M7.0459 1H10.0233C11.6473 1 13.0007 2.28141 13.0007 3.8191C13.0007 5.35678 11.6473 6.63819 10.0233 6.63819H7.0459V1Z" stroke="#15B9ED" stroke-width="1.15056" stroke-miterlimit="10"/>
<path d="M10.0233 6.72363C11.6473 6.72363 13.0007 8.00508 13.0007 9.54277C13.0007 11.0805 11.6473 12.3619 10.0233 12.3619C8.39926 12.3619 7.0459 11.0805 7.0459 9.54277C7.0459 8.00508 8.39926 6.72363 10.0233 6.72363Z" stroke="#15B9ED" stroke-width="1.15056" stroke-miterlimit="10"/>
</svg>
